<svg id="Layer_1" data-name="Layer 1" xmlns="http://www.w3.org/2000/svg" viewBox="0 0 3297.57 1106.04"><defs><style>.cls-1{fill:#fff;}</style></defs><path class="cls-1" d="M2080,543.05c3.19,4.93,4.6,7.66,6.5,10,108.3,131.16,219.33,259.76,346.65,373.27a2270.27,2270.27,0,0,0,188,150.39c7.52,5.4,17.08,9.41,8.41,21.67-4.12,5.82-7.88,9.11-15.15,7.06-45-12.66-91.81-17.64-136.53-31.71a234.87,234.87,0,0,1-81.55-44.34c-79-66.22-151.89-138.91-224.12-212.22-91.94-93.31-182.9-187.58-274.28-281.43-1.63-1.68-3.41-3.23-4.9-5-10-12-8-19.39,6.56-23.54,15.11-4.3,30.81-4.26,46.26-6.08,90.16-10.62,153.32-57.36,185.78-142.69,16.85-44.3,18.22-90.19,3.5-135.41-24.43-75.09-76.46-119.48-154.22-132.65-51.76-8.77-104.11-6.7-156.35-6.3-13.21.1-13.11,7.09-12.84,16.4,1.45,49.89,2.48,99.79,4,149.67,7.2,230,2.29,460-2.93,690-.28,12.44-.74,24.86,1.73,37.28,7.33,36.78,33,62.9,69.53,70,3.81.74,7.72,1.06,11.58,1.53,7.44.92,14.73,3.06,14.33,12.06s-8.82,9.78-15.47,11.16c-4.51.93-9.32.5-14,.58-92.77,1.61-185.53,3.33-278.18,8.59q-5.83.35-11.69.32c-8.6,0-13-5.43-14-13-1.13-8.51,6.54-9.26,12.18-11.25a78.92,78.92,0,0,1,9.11-2.06c44.81-9.75,73-38.69,78.6-84.19,6.35-51.88,7.45-104.23,8.06-156.44,2.24-190.26,3-380.54-.64-570.8-.68-35.86-2.8-71.69-4.6-107.51a214,214,0,0,0-3.51-30.18c-8.35-42.81-40.19-73.54-83-80.94-8.83-1.53-22-.64-21.72-12.49.33-14.56,14.14-11.37,23.78-11.14,123.14,3,246.19,9.38,369.4,10,24.14.12,48.25-.29,72.42,1.94C2189.42,27.66,2340.7,192.1,2250,400c-28.64,65.67-80.3,107.91-145.94,134.08C2097.05,537,2089.76,539.48,2080,543.05Z" transform="translate(-1571.1 -0.02)"/><path class="cls-1" d="M3595.61,580.9c46,0,92-.12,138,.13,6.15,0,14.93-3.33,15.56,8.29.51,9.34-.52,14.85-12.44,17.47-45.1,9.9-69.48,40.32-71.3,88.48-2,53-1,106.08,1.36,159.09,1.36,30.39,2.43,60.8,4.61,91.14.8,11.21-2.66,19.31-10.13,27.17-15.79,16.61-34.1,29.63-54.29,40.14-65.75,34.22-135.29,56.94-209.33,61.92-88.73,6-177.68,8.7-266-5.91a621.36,621.36,0,0,1-181.47-59.45c-122.34-62.26-201.69-160.53-238.06-292-34.79-125.67-31.93-252.06,10.06-375.63C2777.9,177.74,2893.6,75.9,3058.79,29c94.79-26.93,192-31.47,289.84-27.58,62.61,2.48,124.13,12,183.49,32.85,40,14.05,76.67,34.49,110.82,59.56,12.14,8.91,18.46,19.06,16.44,35.59-2.15,17.65-.31,35.81,0,53.74.33,16.43-.51,32.69-3.57,48.9-1.4,7.48-3.85,13.54-11.26,16.33-8.73,3.28-14.89-1.7-20.65-7.2-1.67-1.59-2.86-3.69-4.29-5.54-68.45-89-160.74-136-270.17-151.37-84.79-11.89-168.31-5.6-248.3,26.91-126,51.22-210.6,142.14-252.77,271.37-34.66,106.22-37.15,214.13-.61,319.69,56.07,162,170.27,261.19,338.63,295.63,88.4,18.08,175.35,10.4,259.74-22.26,27.76-10.75,53.47-25.34,78-42.25,7.49-5.18,12.11-10.47,11.89-20.73-1.46-70.18-2.23-140.37-3.23-210.57-.3-21.61-5.8-41.49-18.77-59.16-13.47-18.35-30.4-31.12-53.25-35.07-3.08-.53-6.1-1.31-9.16-1.93-8.43-1.68-18.76-2.35-16.77-14.58,1.83-11.25,11.85-10.36,20.42-10.36h140.38Z" transform="translate(-1571.1 -0.02)"/><path class="cls-1" d="M4370.54,817.1c8.93-10,10.69-19.36,13.94-27.83,67.73-176.79,136.66-353.13,201.94-530.85,19.63-53.43,42.48-105.51,67.17-156.79,1.69-3.5,3.6-6.92,5.13-10.49,11.39-26.53,5.24-43-20.47-55-8.07-3.78-21.36-4.45-19.08-16.62,2.23-11.9,14.62-11.72,24.9-11.84,70.17-.83,140.28-3.44,210.38-6.64,5.21-.24,13.76-4.49,14,6.3.17,7.34,2.12,15.55-9.85,17.4-67.25,10.35-107.11,54.4-132.19,113.08Q4633.16,356,4549.61,578.1c-44.36,117.33-89.29,234.44-133.6,351.79-12.37,32.79-23,66.23-35.23,99.08a327.33,327.33,0,0,1-19.38,42.49c-7.7,14.14-22.94,14-31.28.22-3.19-5.26-4.78-11.48-7.09-17.27-81.42-204.08-156.81-410.48-237-615.06-40.07-102.29-82.3-203.7-126-304.51a222.82,222.82,0,0,0-53.84-75.63C3886.24,40.7,3863,28.87,3835.9,25c-4.62-.66-9.54-.65-13.76-2.35-6.09-2.45-10.78-7.65-9.18-14.41,1.34-5.7,7.11-7.91,13.06-7.67,9.35.38,18.7.79,28,1.43,79.38,5.44,159,4.61,238.41,8,5.45.23,10.91.57,16.36.46,8.29-.16,13.93,4.25,15.44,11.58,1.66,8.06-5.78,9.59-11.62,11.8-28.71,10.89-37.85,29.41-26.35,58.72,21.05,53.67,43.67,106.72,65.15,160.22,72,179.32,140.12,360.14,209.42,540.49C4363.61,800.37,4366.61,807.37,4370.54,817.1Z" transform="translate(-1571.1 -0.02)"/></svg>